{"accessors" : [{"bufferView" : 0, "byteOffset" : 0, "componentType" : 5123, "count" : 88224, "type" : "SCALAR", "max" : [16950], "min" : [0]}, {"bufferView" : 1, "byteOffset" : 0, "componentType" : 5126, "count" : 16951, "type" : "VEC3", "max" : [4.691948413848877, 9.50275993347168, 6.1210479736328125], "min" : [-4.675808429718018, 0.0003026436606887728, -5.430161476135254]}, {"bufferView" : 1, "byteOffset" : 12, "componentType" : 5126, "count" : 16951, "type" : "VEC3", "max" : [1.0000044107437134, 0.998706042766571, 0.9997363090515137], "min" : [-1.0000044107437134, -0.9994414448738098, -1.0000026226043701]}, {"bufferView" : 1, "byteOffset" : 24, "componentType" : 5126, "count" : 16951, "type" : "VEC2", "max" : [0.9882373213768005, 1], "min" : [0, 0.01761680841445923]}, {"bufferView" : 0, "byteOffset" : 176448, "componentType" : 5123, "count" : 86940, "type" : "SCALAR", "max" : [17831], "min" : [0]}, {"bufferView" : 2, "byteOffset" : 0, "componentType" : 5126, "count" : 17832, "type" : "VEC3", "max" : [3.7407777309417725, 9.89449405670166, 5.223287582397461], "min" : [-3.6396048069000244, 3.1373417377471924, -4.395101547241211]}, {"bufferView" : 2, "byteOffset" : 12, "componentType" : 5126, "count" : 17832, "type" : "VEC3", "max" : [1.0000044107437134, 1.0000030994415283, 0.999984085559845], "min" : [-1.0000044107437134, -1.0000028610229492, -1.0000038146972656]}, {"bufferView" : 2, "byteOffset" : 24, "componentType" : 5126, "count" : 17832, "type" : "VEC2", "max" : [1, 1], "min" : [0, 0]}, {"bufferView" : 0, "byteOffset" : 350328, "componentType" : 5123, "count" : 1344, "type" : "SCALAR", "max" : [911], "min" : [0]}, {"bufferView" : 3, "byteOffset" : 0, "componentType" : 5126, "count" : 912, "type" : "VEC3", "max" : [2.8836965560913086, 8.649024963378906, -2.161191701889038], "min" : [-2.940709114074707, 3.1529624462127686, -4.484509468078613]}, {"bufferView" : 3, "byteOffset" : 12, "componentType" : 5126, "count" : 912, "type" : "VEC3", "max" : [1.0000044107437134, 0.9286959767341614, 0.9302166700363159], "min" : [-1.0000044107437134, -0.9999736547470093, -0.9575709700584412]}, {"bufferView" : 3, "byteOffset" : 24, "componentType" : 5126, "count" : 912, "type" : "VEC2", "max" : [0.9574585556983948, 1], "min" : [0.25746676325798035, 0.03332322835922241]}, {"bufferView" : 0, "byteOffset" : 353016, "componentType" : 5123, "count" : 13152, "type" : "SCALAR", "max" : [2587], "min" : [0]}, {"bufferView" : 4, "byteOffset" : 0, "componentType" : 5126, "count" : 2588, "type" : "VEC3", "max" : [3.7118618488311768, 9.32486629486084, 4.733932018280029], "min" : [-3.695693016052246, 2.38252592086792, -4.827481746673584]}, {"bufferView" : 4, "byteOffset" : 12, "componentType" : 5126, "count" : 2588, "type" : "VEC3", "max" : [1.0000044107437134, 0.9982398748397827, 0.999953031539917], "min" : [-1.0000044107437134, -0.998268187046051, -0.9996352195739746]}, {"bufferView" : 4, "byteOffset" : 24, "componentType" : 5126, "count" : 2588, "type" : "VEC2", "max" : [0.9997206330299377, 0.8310431241989136], "min" : [0.23498371243476868, 0.014989912509918213]}, {"bufferView" : 0, "byteOffset" : 379320, "componentType" : 5123, "count" : 996, "type" : "SCALAR", "max" : [233], "min" : [0]}, {"bufferView" : 5, "byteOffset" : 0, "componentType" : 5126, "count" : 234, "type" : "VEC3", "max" : [3.654675006866455, 3.7842602729797363, 5.1523756980896], "min" : [-3.6451148986816406, 2.898575782775879, -2.167901039123535]}, {"bufferView" : 5, "byteOffset" : 12, "componentType" : 5126, "count" : 234, "type" : "VEC3", "max" : [0.9967268109321594, 0.997953474521637, 0.9980071783065796], "min" : [-0.9967184662818909, -0.9974049925804138, -0.9980064630508423]}, {"bufferView" : 5, "byteOffset" : 24, "componentType" : 5126, "count" : 234, "type" : "VEC2", "max" : [0.9957716464996338, 0.8284969329833984], "min" : [0.5149363875389099, 0.00985109806060791]}], "asset" : {"generator" : "Aspose.3D 21.1", "version" : "2.0"}, "buffers" : [{"uri" : "buffer.bin", "byteLength" : 6482328}], "bufferViews" : [{"buffer" : 0, "byteOffset" : 0, "byteLength" : 381312, "target" : 34963}, {"buffer" : 0, "byteOffset" : 381316, "byteLength" : 2823168, "byteStride" : 32, "target" : 34962}, {"buffer" : 0, "byteOffset" : 3204488, "byteLength" : 2782080, "byteStride" : 32, "target" : 34962}, {"buffer" : 0, "byteOffset" : 5986572, "byteLength" : 43008, "byteStride" : 32, "target" : 34962}, {"buffer" : 0, "byteOffset" : 6029584, "byteLength" : 420864, "byteStride" : 32, "target" : 34962}, {"buffer" : 0, "byteOffset" : 6450452, "byteLength" : 31872, "byteStride" : 32, "target" : 34962}], "materials" : [{"pbrMetallicRoughness" : {"baseColorFactor" : [0.800000011920929, 0.800000011920929, 0.800000011920929, 1], "metallicFactor" : 0, "roughnessFactor" : 0.5}, "emissiveFactor" : [0, 0, 0], "alphaMode" : "OPAQUE", "doubleSided" : true}, {"pbrMetallicRoughness" : {"baseColorFactor" : [0.800000011920929, 0.800000011920929, 0.800000011920929, 1], "metallicFactor" : 0, "roughnessFactor" : 0.5}, "emissiveFactor" : [0, 0, 0], "alphaMode" : "OPAQUE", "doubleSided" : true}, {"pbrMetallicRoughness" : {"baseColorFactor" : [0.800000011920929, 0.800000011920929, 0.800000011920929, 1], "metallicFactor" : 0, "roughnessFactor" : 0.5}, "emissiveFactor" : [0, 0, 0], "alphaMode" : "OPAQUE", "doubleSided" : true}, {"pbrMetallicRoughness" : {"baseColorFactor" : [0.800000011920929, 0.800000011920929, 0.800000011920929, 1], "metallicFactor" : 0, "roughnessFactor" : 0.5}, "emissiveFactor" : [0, 0, 0], "alphaMode" : "OPAQUE", "doubleSided" : true}], "meshes" : [{"primitives" : [{"attributes" : {"POSITION" : 1, "NORMAL" : 2, "TEXCOORD_0" : 3}, "indices" : 0, "material" : 0, "mode" : 4}]}, {"primitives" : [{"attributes" : {"POSITION" : 5, "NORMAL" : 6, "TEXCOORD_0" : 7}, "indices" : 4, "material" : 1, "mode" : 4}]}, {"primitives" : [{"attributes" : {"POSITION" : 9, "NORMAL" : 10, "TEXCOORD_0" : 11}, "indices" : 8, "material" : 2, "mode" : 4}]}, {"primitives" : [{"attributes" : {"POSITION" : 13, "NORMAL" : 14, "TEXCOORD_0" : 15}, "indices" : 12, "mode" : 4}]}, {"primitives" : [{"attributes" : {"POSITION" : 17, "NORMAL" : 18, "TEXCOORD_0" : 19}, "indices" : 16, "material" : 3, "mode" : 4}]}], "nodes" : [{"matrix" : [-0.09600086510181427, 0, 3.128105339500599E-08, 0, 0, 0.09600086510181427, 0, 0, -3.128105339500599E-08, 0, -0.09600086510181427, 0, 0, 0, 0, 1], "mesh" : 0, "name" : "legs"}, {"matrix" : [-0.09600086510181427, 0, 3.128105339500599E-08, 0, 0, 0.09600086510181427, 0, 0, -3.128105339500599E-08, 0, -0.09600086510181427, 0, 0, 0, 0, 1], "mesh" : 1, "name" : "cushions"}, {"matrix" : [-0.09600086510181427, 0, 3.128105339500599E-08, 0, 0, 0.09600086510181427, 0, 0, -3.128105339500599E-08, 0, -0.09600086510181427, 0, 0, 0, 0, 1], "mesh" : 2, "name" : "back"}, {"matrix" : [-0.09600086510181427, 0, 3.128105339500599E-08, 0, 0, 0.09600086510181427, 0, 0, -3.128105339500599E-08, 0, -0.09600086510181427, 0, 0, 0, 0, 1], "mesh" : 3, "name" : "supports"}, {"matrix" : [-0.09600086510181427, 0, 3.128105339500599E-08, 0, 0, 0.09600086510181427, 0, 0, -3.128105339500599E-08, 0, -0.09600086510181427, 0, 0, 0, 0, 1], "mesh" : 4, "name" : "base"}], "scene" : 0, "scenes" : [{"nodes" : [0, 1, 2, 3, 4]}]}